<svg width="1288" height="696" viewBox="0 0 161 81" fill="none" xmlns="http://www.w3.org/2000/svg">
<g clip-path="url(#clip0)">
<g filter="url(#filter0_dd)">
<path d="M94.5 21.75H66.5C65.3954 21.75 64.5 22.6454 64.5 23.75V51.75C64.5 52.8546 65.3954 53.75 66.5 53.75H94.5C95.6046 53.75 96.5 52.8546 96.5 51.75V23.75C96.5 22.6454 95.6046 21.75 94.5 21.75Z" fill="url(#paint0_linear)"/>
<path d="M94.5 21.75H66.5C65.3954 21.75 64.5 22.6454 64.5 23.75V51.75C64.5 52.8546 65.3954 53.75 66.5 53.75H94.5C95.6046 53.75 96.5 52.8546 96.5 51.75V23.75C96.5 22.6454 95.6046 21.75 94.5 21.75Z" fill="#FF3D00"/>
</g>
<path d="M81.533 48.002C79.541 48.002 77.753 47.582 76.169 46.742C74.585 45.902 73.349 44.738 72.461 43.25C71.573 41.738 71.129 40.034 71.129 38.138C71.129 36.242 71.573 34.55 72.461 33.062C73.349 31.574 74.573 30.41 76.133 29.57C77.717 28.73 79.517 28.31 81.533 28.31C83.429 28.31 85.085 28.694 86.501 29.462C87.941 30.23 89.021 31.334 89.741 32.774L86.285 34.79C85.733 33.902 85.037 33.242 84.197 32.81C83.381 32.354 82.481 32.126 81.497 32.126C79.817 32.126 78.425 32.678 77.321 33.782C76.217 34.862 75.665 36.314 75.665 38.138C75.665 39.962 76.205 41.426 77.285 42.53C78.389 43.61 79.793 44.15 81.497 44.15C82.481 44.15 83.381 43.934 84.197 43.502C85.037 43.046 85.733 42.374 86.285 41.486L89.741 43.502C88.997 44.942 87.905 46.058 86.465 46.85C85.049 47.618 83.405 48.002 81.533 48.002Z" fill="white"/>
<path d="M81.75 43.25C84.6495 43.25 87 40.8995 87 38C87 35.1005 84.6495 32.75 81.75 32.75C78.8505 32.75 76.5 35.1005 76.5 38C76.5 40.8995 78.8505 43.25 81.75 43.25Z" fill="#FF3D00"/>
<path d="M81.75 43.25C84.6495 43.25 87 40.8995 87 38C87 35.1005 84.6495 32.75 81.75 32.75C78.8505 32.75 76.5 35.1005 76.5 38C76.5 40.8995 78.8505 43.25 81.75 43.25Z" fill="black"/>
</g>
<defs>
<filter id="filter0_dd" x="44.5" y="9.75" width="72" height="72" filterUnits="userSpaceOnUse" color-interpolation-filters="sRGB">
<feFlood flood-opacity="0" result="BackgroundImageFix"/>
<feColorMatrix in="SourceAlpha" type="matrix" values="0 0 0 0 0 0 0 0 0 0 0 0 0 0 0 0 0 0 127 0"/>
<feOffset dy="8"/>
<feGaussianBlur stdDeviation="10"/>
<feColorMatrix type="matrix" values="0 0 0 0 0 0 0 0 0 0 0 0 0 0 0 0 0 0 0.3 0"/>
<feBlend mode="normal" in2="BackgroundImageFix" result="effect1_dropShadow"/>
<feColorMatrix in="SourceAlpha" type="matrix" values="0 0 0 0 0 0 0 0 0 0 0 0 0 0 0 0 0 0 127 0"/>
<feOffset dy="5"/>
<feGaussianBlur stdDeviation="8"/>
<feColorMatrix type="matrix" values="0 0 0 0 0 0 0 0 0 0 0 0 0 0 0 0 0 0 0.05 0"/>
<feBlend mode="normal" in2="effect1_dropShadow" result="effect2_dropShadow"/>
<feBlend mode="normal" in="SourceGraphic" in2="effect2_dropShadow" result="shape"/>
</filter>
<linearGradient id="paint0_linear" x1="69.8667" y1="50" x2="81.5353" y2="69.7212" gradientUnits="userSpaceOnUse">
<stop stop-color="white"/>
<stop offset="1" stop-color="#9F9F9F"/>
</linearGradient>
<clipPath id="clip0">
<rect x="0.5" y="0.75" width="160" height="80" fill="white"/>
</clipPath>
</defs>
</svg>
